<svg width="34" height="35" viewBox="0 0 34 35" fill="none" xmlns="http://www.w3.org/2000/svg">
<path d="M26.48 8.01957C25.8983 7.43781 24.955 7.43781 24.3733 8.01957L16.9997 15.3932L9.62607 8.01957C9.04431 7.43781 8.10109 7.43781 7.51933 8.01957C6.93757 8.60133 6.93757 9.54456 7.51933 10.1263L14.8929 17.4999L7.51933 24.8735C6.93757 25.4553 6.93757 26.3985 7.51933 26.9803C8.10109 27.562 9.04431 27.562 9.62607 26.9803L16.9997 19.6067L24.3733 26.9803C24.955 27.562 25.8983 27.562 26.48 26.9803C27.0618 26.3985 27.0618 25.4553 26.48 24.8735L19.1064 17.4999L26.48 10.1263C27.0618 9.54456 27.0618 8.60134 26.48 8.01957Z" fill="current"/>
</svg>
