<svg width="24" height="24" viewBox="0 0 24 24" fill="none" xmlns="http://www.w3.org/2000/svg">
<path d="M11.9879 14.513L19.3379 7.16295C19.5879 6.91295 19.8837 6.79212 20.2254 6.80045C20.5671 6.80879 20.8629 6.93795 21.1129 7.18795C21.3629 7.43795 21.4879 7.73379 21.4879 8.07545C21.4879 8.41712 21.3629 8.71295 21.1129 8.96295L13.4129 16.638C13.2129 16.838 12.9879 16.988 12.7379 17.088C12.4879 17.188 12.2379 17.238 11.9879 17.238C11.7379 17.238 11.4879 17.188 11.2379 17.088C10.9879 16.988 10.7629 16.838 10.5629 16.638L2.8629 8.93795C2.6129 8.68795 2.49207 8.39628 2.5004 8.06295C2.50874 7.72962 2.6379 7.43795 2.8879 7.18795C3.1379 6.93795 3.43374 6.81295 3.7754 6.81295C4.11707 6.81295 4.4129 6.93795 4.6629 7.18795L11.9879 14.513Z" fill="current"/>
</svg>
