<svg width="24" height="24" viewBox="0 0 24 24" fill="none" xmlns="http://www.w3.org/2000/svg">
<path d="M14.3893 12.0057L7.34768 5.03814C7.10817 4.80115 6.9924 4.5207 7.00039 4.19681C7.00837 3.87292 7.13212 3.59248 7.37163 3.35549C7.61114 3.1185 7.89456 3 8.2219 3C8.54923 3 8.83265 3.1185 9.07216 3.35549L16.4252 10.6549C16.6168 10.8445 16.7605 11.0578 16.8563 11.2948C16.9521 11.5317 17 11.7687 17 12.0057C17 12.2427 16.9521 12.4797 16.8563 12.7167C16.7605 12.9537 16.6168 13.167 16.4252 13.3566L9.04821 20.656C8.8087 20.893 8.52927 21.0075 8.20992 20.9996C7.89057 20.9917 7.61114 20.8693 7.37163 20.6323C7.13212 20.3953 7.01236 20.1148 7.01236 19.791C7.01236 19.4671 7.13212 19.1866 7.37163 18.9496L14.3893 12.0057Z" fill="white"/>
</svg>
