<svg width="24" height="24" viewBox="0 0 24 24" fill="none" xmlns="http://www.w3.org/2000/svg">
<path d="M9.61068 11.9943L16.6523 18.9619C16.8918 19.1989 17.0076 19.4793 16.9996 19.8032C16.9916 20.1271 16.8679 20.4075 16.6284 20.6445C16.3889 20.8815 16.1054 21 15.7781 21C15.4508 21 15.1673 20.8815 14.9278 20.6445L7.57483 13.3451C7.38322 13.1555 7.23951 12.9422 7.14371 12.7052C7.0479 12.4683 7 12.2313 7 11.9943C7 11.7573 7.0479 11.5203 7.14371 11.2833C7.23951 11.0463 7.38322 10.833 7.57483 10.6434L14.9518 3.34402C15.1913 3.10703 15.4707 2.99248 15.7901 3.00038C16.1094 3.00828 16.3889 3.13073 16.6284 3.36772C16.8679 3.60471 16.9876 3.88516 16.9876 4.20905C16.9876 4.53294 16.8679 4.81338 16.6284 5.05037L9.61068 11.9943Z" fill="white"/>
</svg>
