<svg width="24" height="24" viewBox="0 0 24 24" fill="none" xmlns="http://www.w3.org/2000/svg">
<path fill-rule="evenodd" clip-rule="evenodd" d="M12 3C13.6763 3 15.1117 4.03113 15.7067 5.49371C16.2312 5.18018 16.8445 5 17.5 5C19.433 5 21 6.567 21 8.5V15.5C21 17.433 19.433 19 17.5 19C16.8445 19 16.2312 18.8198 15.7067 18.5063C15.1117 19.9689 13.6763 21 12 21C10.3237 21 8.88826 19.9689 8.29331 18.5063C7.76884 18.8198 7.15546 19 6.5 19C4.567 19 3 17.433 3 15.5V8.5C3 6.567 4.567 5 6.5 5C7.15546 5 7.76884 5.18018 8.29331 5.49371C8.88826 4.03113 10.3237 3 12 3ZM8 9C8 8.44771 8.44771 8 9 8C9.55229 8 10 8.44771 10 9V15C10 15.5523 9.55229 16 9 16C8.44771 16 8 15.5523 8 15V9ZM14 9C14 8.44771 14.4477 8 15 8C15.5523 8 16 8.44771 16 9V15C16 15.5523 15.5523 16 15 16C14.4477 16 14 15.5523 14 15V9Z" fill="current"/>
</svg>
