<svg width="24" height="24" viewBox="0 0 24 24" fill="none" xmlns="http://www.w3.org/2000/svg">
<path fill-rule="evenodd" clip-rule="evenodd" d="M15.7067 5.49371C15.1117 4.03113 13.6763 3 12 3C10.3237 3 8.88826 4.03113 8.29331 5.49371C7.76884 5.18018 7.15546 5 6.5 5C4.567 5 3 6.567 3 8.5V15.5C3 17.433 4.567 19 6.5 19C7.15546 19 7.76884 18.8198 8.29331 18.5063C8.88826 19.9689 10.3237 21 12 21C13.6763 21 15.1117 19.9689 15.7067 18.5063C16.2312 18.8198 16.8445 19 17.5 19C19.433 19 21 17.433 21 15.5V8.5C21 6.567 19.433 5 17.5 5C16.8445 5 16.2312 5.18018 15.7067 5.49371ZM14 7C14 5.89543 13.1046 5 12 5C10.8954 5 10 5.89543 10 7V17C10 18.1046 10.8954 19 12 19C13.1046 19 14 18.1046 14 17V7ZM16 8.5V15.5C16 16.3284 16.6716 17 17.5 17C18.3284 17 19 16.3284 19 15.5V8.5C19 7.67157 18.3284 7 17.5 7C16.6716 7 16 7.67157 16 8.5ZM6.5 17C7.32843 17 8 16.3284 8 15.5V8.5C8 7.67157 7.32843 7 6.5 7C5.67157 7 5 7.67157 5 8.5V15.5C5 16.3284 5.67157 17 6.5 17Z" fill="white"/>
</svg>
