<svg width="24" height="24" viewBox="0 0 24 24" fill="none" xmlns="http://www.w3.org/2000/svg">
<path fill-rule="evenodd" clip-rule="evenodd" d="M9.77376 19.34C10.0839 20.34 10.9544 20.99 12.005 20.99L11.995 21C13.0356 21 13.9161 20.35 14.2262 19.35L14.5764 18.23L15.617 18.78C16.5375 19.26 17.6181 19.1 18.3585 18.36C19.1089 17.62 19.269 16.55 18.7788 15.62L18.2285 14.58L19.3491 14.23C20.3496 13.92 21 13.04 21 12C21 10.96 20.3496 10.08 19.3491 9.77L18.2285 9.42L18.7788 8.38C19.269 7.46 19.1089 6.38 18.3685 5.64C17.6281 4.9 16.5575 4.73 15.627 5.22L14.5864 5.77L14.2362 4.65C13.9261 3.65 13.0456 3 12.005 3C10.9644 3 10.0839 3.65 9.77376 4.65L9.42357 5.77L8.38299 5.22C7.46248 4.74 6.38188 4.9 5.64147 5.64C4.90106 6.38 4.73096 7.45 5.22123 8.38L5.77154 9.42L4.65092 9.77C3.65036 10.08 3 10.96 3 12C3 13.04 3.65036 13.92 4.65092 14.23L5.77154 14.58L5.22123 15.62C4.74097 16.54 4.90106 17.62 5.64147 18.36C6.38188 19.1 7.46248 19.26 8.38299 18.77L9.42357 18.22L9.77376 19.34ZM8.66528 16.5128C9.6375 16.0076 10.8236 16.4934 11.1542 17.5427L11.4944 18.6308C11.6014 18.9611 11.8833 19 11.9903 19C12.0972 19 12.3889 18.9611 12.4958 18.6308L12.8361 17.5427C13.1569 16.4934 14.3528 16.0076 15.325 16.5128L16.3361 17.0472C16.6472 17.2123 16.8708 17.0375 16.9486 16.95C17.0264 16.8723 17.2014 16.6489 17.0458 16.338L16.5111 15.3275C16.0056 14.356 16.4917 13.1707 17.5417 12.8404L18.6306 12.5003C18.9611 12.3935 19 12.1117 19 11.9951C19 11.8786 18.9611 11.5968 18.6306 11.4997L17.5417 11.1596C16.4917 10.839 15.9958 9.644 16.5111 8.67245L17.0458 7.66204C17.2111 7.35114 17.0361 7.12769 16.9583 7.04996C16.8708 6.97224 16.6569 6.78765 16.3458 6.95281L15.3347 7.48716C14.3625 8.00208 13.1667 7.50659 12.8458 6.45732L12.5056 5.36919C12.3986 5.03886 12.1167 5 12 5C11.8833 5 11.6014 5.03886 11.5042 5.36919L11.1639 6.45732C10.8431 7.50659 9.64722 8.00208 8.675 7.48716L7.66389 6.95281C7.35278 6.78765 7.12917 6.96252 7.05139 7.04996C6.97361 7.12769 6.79861 7.35114 6.95417 7.66204L7.48889 8.67245C8.00417 9.644 7.50833 10.839 6.45833 11.1596L5.36944 11.4997C5.03889 11.6065 5 11.8883 5 11.9951C5 12.102 5.03889 12.3935 5.36944 12.5003L6.45833 12.8404C7.50833 13.161 7.99444 14.356 7.48889 15.3275L6.95417 16.338C6.78889 16.6489 6.96389 16.8723 7.05139 16.95C7.13889 17.0278 7.35278 17.2026 7.66389 17.0375L8.66528 16.5128Z" fill="white"/>
</svg>
