<svg width="24" height="24" viewBox="0 0 24 24" fill="none" xmlns="http://www.w3.org/2000/svg">
<path d="M11.9981 20.9981C10.9482 20.9981 10.0682 20.3504 9.75661 19.3458L9.41292 18.2392L8.38754 18.7793C7.45846 19.2684 6.37642 19.106 5.63428 18.3619C4.89215 17.6198 4.72786 16.5378 5.21695 15.6087L5.75703 14.5833L4.65044 14.2396C3.64771 13.9299 3 13.0518 3 12C3 10.9501 3.64771 10.0701 4.65233 9.7585L5.75892 9.41481L5.21884 8.38943C4.72975 7.46034 4.89215 6.3783 5.63617 5.63617C6.38019 4.89404 7.46034 4.72975 8.38943 5.21884L9.41481 5.75892L9.7585 4.65233C10.0701 3.64771 10.9501 3 12 3C13.0499 3 13.9299 3.64771 14.2415 4.65233L14.5852 5.75892L15.6106 5.21884C16.5397 4.72975 17.6198 4.89215 18.3638 5.63617C19.106 6.3783 19.2702 7.46034 18.7812 8.38943L18.2411 9.41481L19.3477 9.7585C20.3523 10.0701 21 10.9501 21 12C21 13.0499 20.3523 13.9299 19.3477 14.2415L18.2411 14.5852L18.7812 15.6106C19.2702 16.5397 19.1078 17.6198 18.3638 18.3638C17.6217 19.106 16.5415 19.2702 15.6106 18.7812L14.5852 18.2411L14.2415 19.3477C13.9299 20.3504 13.0518 21 12 21L11.9981 20.9981Z" fill="current"/>
</svg>
