<svg width="32" height="32" viewBox="0 0 32 32" fill="none" xmlns="http://www.w3.org/2000/svg">
<rect width="32" height="32" rx="4" fill="#FFF3DC"/>
<path d="M16 22L11.8 23.8C11.1333 24.0833 10.5 24.0292 9.9 23.6375C9.3 23.2458 9 22.6917 9 21.975V9C9 8.45 9.19583 7.97917 9.5875 7.5875C9.97917 7.19583 10.45 7 11 7H21C21.55 7 22.0208 7.19583 22.4125 7.5875C22.8042 7.97917 23 8.45 23 9V21.975C23 22.6917 22.7 23.2458 22.1 23.6375C21.5 24.0292 20.8667 24.0833 20.2 23.8L16 22Z" fill="#FFB62D"/>
</svg>
