<svg width="32" height="32" viewBox="0 0 32 32" fill="none" xmlns="http://www.w3.org/2000/svg">
<g opacity="0.5">
<rect width="32" height="32" rx="4" fill="#FFD0DD"/>
<path fill-rule="evenodd" clip-rule="evenodd" d="M13.7738 23.34C14.0839 24.34 14.9544 24.99 16.005 24.99L15.995 25C17.0356 25 17.9161 24.35 18.2262 23.35L18.5764 22.23L19.617 22.78C20.5375 23.26 21.6181 23.1 22.3585 22.36C23.1089 21.62 23.269 20.55 22.7788 19.62L22.2285 18.58L23.3491 18.23C24.3496 17.92 25 17.04 25 16C25 14.96 24.3496 14.08 23.3491 13.77L22.2285 13.42L22.7788 12.38C23.269 11.46 23.1089 10.38 22.3685 9.64C21.6281 8.9 20.5575 8.73 19.627 9.22L18.5864 9.77L18.2362 8.65C17.9261 7.65 17.0456 7 16.005 7C14.9644 7 14.0839 7.65 13.7738 8.65L13.4236 9.77L12.383 9.22C11.4625 8.74 10.3819 8.9 9.64147 9.64C8.90106 10.38 8.73096 11.45 9.22123 12.38L9.77154 13.42L8.65092 13.77C7.65036 14.08 7 14.96 7 16C7 17.04 7.65036 17.92 8.65092 18.23L9.77154 18.58L9.22123 19.62C8.74097 20.54 8.90106 21.62 9.64147 22.36C10.3819 23.1 11.4625 23.26 12.383 22.77L13.4236 22.22L13.7738 23.34ZM12.6653 20.5128C13.6375 20.0076 14.8236 20.4934 15.1542 21.5427L15.4944 22.6308C15.6014 22.9611 15.8833 23 15.9903 23C16.0972 23 16.3889 22.9611 16.4958 22.6308L16.8361 21.5427C17.1569 20.4934 18.3528 20.0076 19.325 20.5128L20.3361 21.0472C20.6472 21.2123 20.8708 21.0375 20.9486 20.95C21.0264 20.8723 21.2014 20.6489 21.0458 20.338L20.5111 19.3275C20.0056 18.356 20.4917 17.1707 21.5417 16.8404L22.6306 16.5003C22.9611 16.3935 23 16.1117 23 15.9951C23 15.8786 22.9611 15.5968 22.6306 15.4997L21.5417 15.1596C20.4917 14.839 19.9958 13.644 20.5111 12.6724L21.0458 11.662C21.2111 11.3511 21.0361 11.1277 20.9583 11.05C20.8708 10.9722 20.6569 10.7876 20.3458 10.9528L19.3347 11.4872C18.3625 12.0021 17.1667 11.5066 16.8458 10.4573L16.5056 9.36919C16.3986 9.03886 16.1167 9 16 9C15.8833 9 15.6014 9.03886 15.5042 9.36919L15.1639 10.4573C14.8431 11.5066 13.6472 12.0021 12.675 11.4872L11.6639 10.9528C11.3528 10.7876 11.1292 10.9625 11.0514 11.05C10.9736 11.1277 10.7986 11.3511 10.9542 11.662L11.4889 12.6724C12.0042 13.644 11.5083 14.839 10.4583 15.1596L9.36944 15.4997C9.03889 15.6065 9 15.8883 9 15.9951C9 16.102 9.03889 16.3935 9.36944 16.5003L10.4583 16.8404C11.5083 17.161 11.9944 18.356 11.4889 19.3275L10.9542 20.338C10.7889 20.6489 10.9639 20.8723 11.0514 20.95C11.1389 21.0278 11.3528 21.2026 11.6639 21.0375L12.6653 20.5128Z" fill="#FF1251"/>
</g>
</svg>
