<svg width="32" height="32" viewBox="0 0 32 32" fill="none" xmlns="http://www.w3.org/2000/svg">
<rect width="32" height="32" rx="4" fill="#FFD0DD"/>
<path d="M15.9981 24.9981C14.9482 24.9981 14.0682 24.3504 13.7566 23.3458L13.4129 22.2392L12.3875 22.7793C11.4585 23.2684 10.3764 23.106 9.63428 22.3619C8.89215 21.6198 8.72786 20.5378 9.21695 19.6087L9.75703 18.5833L8.65044 18.2396C7.64771 17.9299 7 17.0518 7 16C7 14.9501 7.64771 14.0701 8.65233 13.7585L9.75892 13.4148L9.21884 12.3894C8.72975 11.4603 8.89215 10.3783 9.63617 9.63617C10.3802 8.89404 11.4603 8.72975 12.3894 9.21884L13.4148 9.75892L13.7585 8.65233C14.0701 7.64771 14.9501 7 16 7C17.0499 7 17.9299 7.64771 18.2415 8.65233L18.5852 9.75892L19.6106 9.21884C20.5397 8.72975 21.6198 8.89215 22.3638 9.63617C23.106 10.3783 23.2702 11.4603 22.7812 12.3894L22.2411 13.4148L23.3477 13.7585C24.3523 14.0701 25 14.9501 25 16C25 17.0499 24.3523 17.9299 23.3477 18.2415L22.2411 18.5852L22.7812 19.6106C23.2702 20.5397 23.1078 21.6198 22.3638 22.3638C21.6217 23.106 20.5415 23.2702 19.6106 22.7812L18.5852 22.2411L18.2415 23.3477C17.9299 24.3504 17.0518 25 16 25L15.9981 24.9981Z" fill="#FF1251"/>
</svg>
