<svg width="32" height="32" viewBox="0 0 32 32" fill="none" xmlns="http://www.w3.org/2000/svg">
<rect width="32" height="32" rx="4" fill="#FFD1FA"/>
<path d="M15.2 23.2V17.38C14.96 17.2333 14.7667 17.0433 14.62 16.81C14.4733 16.5767 14.4 16.3067 14.4 16C14.4 15.56 14.5567 15.1833 14.87 14.87C15.1833 14.5567 15.56 14.4 16 14.4C16.44 14.4 16.8167 14.5567 17.13 14.87C17.4433 15.1833 17.6 15.56 17.6 16C17.6 16.3067 17.5267 16.58 17.38 16.82C17.2333 17.06 17.04 17.2467 16.8 17.38V23.2C16.8 23.4267 16.7233 23.6167 16.57 23.77C16.4167 23.9233 16.2267 24 16 24C15.7733 24 15.5833 23.9233 15.43 23.77C15.2767 23.6167 15.2 23.4267 15.2 23.2ZM11.06 21.22C10.9 21.38 10.7067 21.46 10.48 21.46C10.2533 21.46 10.0667 21.3733 9.92 21.2C9.32 20.4933 8.85 19.7 8.51 18.82C8.17 17.94 8 17 8 16C8 14.8933 8.21 13.8533 8.63 12.88C9.05 11.9067 9.62 11.06 10.34 10.34C11.06 9.62 11.9067 9.05 12.88 8.63C13.8533 8.21 14.8933 8 16 8C17.1067 8 18.1467 8.21 19.12 8.63C20.0933 9.05 20.94 9.62 21.66 10.34C22.38 11.06 22.95 11.9067 23.37 12.88C23.79 13.8533 24 14.8933 24 16C24 17 23.83 17.94 23.49 18.82C23.15 19.7 22.68 20.4933 22.08 21.2C21.9333 21.3733 21.75 21.4633 21.53 21.47C21.31 21.4767 21.12 21.4 20.96 21.24C20.8133 21.0933 20.74 20.9067 20.74 20.68C20.74 20.4533 20.8133 20.2533 20.96 20.08C21.4133 19.52 21.7667 18.8933 22.02 18.2C22.2733 17.5067 22.4 16.7733 22.4 16C22.4 14.2133 21.78 12.7 20.54 11.46C19.3 10.22 17.7867 9.6 16 9.6C14.2133 9.6 12.7 10.22 11.46 11.46C10.22 12.7 9.6 14.2133 9.6 16C9.6 16.7733 9.72667 17.5033 9.98 18.19C10.2333 18.8767 10.5933 19.5 11.06 20.06C11.2067 20.2333 11.2833 20.43 11.29 20.65C11.2967 20.87 11.22 21.06 11.06 21.22ZM13.32 18.96C13.16 19.12 12.9667 19.2033 12.74 19.21C12.5133 19.2167 12.3333 19.1267 12.2 18.94C11.8933 18.5267 11.65 18.0733 11.47 17.58C11.29 17.0867 11.2 16.56 11.2 16C11.2 14.6667 11.6667 13.5333 12.6 12.6C13.5333 11.6667 14.6667 11.2 16 11.2C17.3333 11.2 18.4667 11.6667 19.4 12.6C20.3333 13.5333 20.8 14.6667 20.8 16C20.8 16.56 20.71 17.09 20.53 17.59C20.35 18.09 20.1067 18.54 19.8 18.94C19.6667 19.1133 19.4867 19.2033 19.26 19.21C19.0333 19.2167 18.84 19.14 18.68 18.98C18.5333 18.8333 18.4567 18.6467 18.45 18.42C18.4433 18.1933 18.5067 17.9867 18.64 17.8C18.8133 17.5333 18.95 17.25 19.05 16.95C19.15 16.65 19.2 16.3333 19.2 16C19.2 15.12 18.8867 14.3667 18.26 13.74C17.6333 13.1133 16.88 12.8 16 12.8C15.12 12.8 14.3667 13.1133 13.74 13.74C13.1133 14.3667 12.8 15.12 12.8 16C12.8 16.3467 12.85 16.6667 12.95 16.96C13.05 17.2533 13.1867 17.5333 13.36 17.8C13.4933 17.9867 13.5567 18.19 13.55 18.41C13.5433 18.63 13.4667 18.8133 13.32 18.96Z" fill="#F737E1"/>
</svg>
