<svg width="120" height="32" viewBox="0 0 120 32" fill="none" xmlns="http://www.w3.org/2000/svg">
<g clip-path="url(#clip0_578_1728)">
<path d="M54.7024 21.1974V13.3649H51.4668V9.63538H54.7024V4.61539L59.0556 4.62465V9.63538H63.562V13.3649H59.0556V20.2959C59.0556 21.7871 59.6294 22.3459 61.2337 22.3459C62.0208 22.3459 62.6247 22.2533 63.4419 21.9724V25.6401C62.5346 25.921 61.0835 26.1372 60.1762 26.1372C56.5771 26.1372 54.7024 24.4577 54.7024 21.1974Z" fill="#1D1D1D"/>
<path d="M65.557 9.63536H69.9102V11.3766C70.9376 10.0089 72.3586 9.26488 74.1131 9.26488C74.9904 9.29575 75.444 9.3575 75.8676 9.63844V13.5532C75.2638 13.2722 74.4766 13.087 73.6895 13.087C72.0852 13.087 70.7243 13.9576 69.9102 15.4179V25.8901H65.557V9.63536Z" fill="#1D1D1D"/>
<path d="M99.8924 9.63536H95.5363V25.8871H99.8894V14.5751C100.553 13.6427 101.521 13.1765 102.731 13.1765C104.456 13.1765 105.574 14.4516 105.574 16.4398V25.8871H109.93V15.8193C109.93 15.418 109.9 15.0446 109.87 14.6711L109.87 14.6708C110.564 13.7075 111.561 13.1796 112.772 13.1796C114.526 13.1796 115.644 14.4547 115.644 16.4429V25.8901H120V15.8224C120 12.0003 117.491 9.32663 113.922 9.32663C111.807 9.32663 110.023 10.1355 108.722 11.6884C107.664 10.1973 106 9.32663 103.975 9.32663C102.401 9.32663 101.01 9.82369 99.8924 10.8178V9.63536Z" fill="#1D1D1D"/>
<path d="M41.6913 26.1988C36.533 26.1988 33.3154 23.3585 33 18.9066H37.3892C37.5034 21.219 38.9575 22.7132 41.6072 22.7132C43.8003 22.7132 45.3686 21.7191 45.3686 20.018C45.3686 18.6997 44.3711 17.9093 42.6347 17.5574L39.2729 16.8844C36.1665 16.27 33.7751 14.5411 33.7751 11.0586C33.7751 7.31054 36.9957 4.61839 41.4119 4.61839C45.8282 4.61839 49.3612 7.3692 49.6466 11.7625H45.2574C45.1162 9.56738 43.6321 8.07311 41.469 8.07311C39.306 8.07311 38.1643 9.30187 38.1643 10.7684C38.1643 12.2348 39.4472 12.8183 40.9283 13.1116L44.4342 13.8433C48.0243 14.575 49.9621 16.2731 49.9621 19.3758C49.9621 23.3863 46.8286 26.1988 41.7004 26.1988H41.6913Z" fill="#1D1D1D"/>
<path d="M77.7301 28.0544V31.8179C78.1748 31.9383 78.8838 32 79.5928 32C83.0807 32 85.0005 30.5119 86.6258 26.5663L93.7158 9.5613H89.1073L84.8533 20.1292L81.131 9.5613H76.4023L82.4288 25.5938L82.2516 26.0507C81.6898 27.4771 80.6263 28.1748 79.1782 28.1748C78.5563 28.1748 78.1748 28.147 77.7301 28.0544Z" fill="#1D1D1D"/>
<path d="M14.397 29.5354C12.7171 29.5354 11.3091 28.4725 10.8106 26.8239L10.2607 25.0079L8.62006 25.8942C7.13353 26.6968 5.40227 26.4303 4.21485 25.2093C3.02744 23.9915 2.76458 22.2158 3.54713 20.6912L4.41125 19.0085L2.6407 18.4445C1.03634 17.9363 0 16.4953 0 14.7692C0 13.0463 1.03634 11.6022 2.64373 11.0909L4.41427 10.5269L3.55015 8.84419C2.7676 7.31954 3.02744 5.54388 4.21788 4.32603C5.40831 3.10817 7.13655 2.83857 8.62308 3.64118L10.2637 4.52745L10.8136 2.71151C11.3121 1.06291 12.7201 0 14.4 0C16.0799 0 17.4879 1.06291 17.9864 2.71151L18.5363 4.52745L20.1769 3.64118C21.6634 2.83857 23.3917 3.10507 24.5821 4.32603C25.7695 5.54388 26.0324 7.31954 25.2499 8.84419L24.3857 10.5269L26.1563 11.0909C27.7637 11.6022 28.8 13.0463 28.8 14.7692C28.8 16.4922 27.7637 17.9363 26.1563 18.4476L24.3857 19.0116L25.2499 20.6943C26.0324 22.2189 25.7726 23.9915 24.5821 25.2124C23.3947 26.4303 21.6665 26.6999 20.1769 25.8973L18.5363 25.011L17.9864 26.8269C17.4879 28.4724 16.0829 29.5385 14.4 29.5385L14.397 29.5354Z" fill="#1D1D1D"/>
</g>
<defs>
<clipPath id="clip0_578_1728">
<rect width="120" height="32" fill="white"/>
</clipPath>
</defs>
</svg>
