<svg width="77" height="24" viewBox="0 0 77 24" fill="none" xmlns="http://www.w3.org/2000/svg">
<path d="M19.2079 14.5326V7.66809H16.3442V4.39955H19.2079V0L23.0607 0.00811717V4.39955H27.0491V7.66809H23.0607V13.7425C23.0607 15.0494 23.5686 15.5391 24.9885 15.5391C25.6851 15.5391 26.2196 15.4579 26.9428 15.2117V18.4261C26.1398 18.6724 24.8555 18.8618 24.0525 18.8618C20.8671 18.8618 19.2079 17.3898 19.2079 14.5326Z" fill="#1D1D1D"/>
<path d="M28.8148 4.39952H32.6676V5.92556C33.577 4.72692 34.8346 4.07483 36.3875 4.07483C37.1639 4.10189 37.5654 4.156 37.9403 4.40223V7.83312C37.4059 7.58689 36.7092 7.42455 36.0126 7.42455C34.5927 7.42455 33.3882 8.18757 32.6676 9.46739V18.6453H28.8148V4.39952Z" fill="#1D1D1D"/>
<path d="M59.2037 4.39952H55.3482V18.6426H59.201V8.72872C59.7886 7.91159 60.6448 7.50302 61.7164 7.50302C63.2426 7.50302 64.2317 8.62049 64.2317 10.363V18.6426H68.0872V9.81914C68.0872 9.46749 68.0606 9.14018 68.0341 8.81287L68.034 8.8126C68.6482 7.96841 69.531 7.50572 70.6026 7.50572C72.1554 7.50572 73.1445 8.6232 73.1445 10.3657V18.6453H77V9.82184C77 6.47213 74.7798 4.12895 71.6209 4.12895C69.749 4.12895 68.1696 4.83786 67.0183 6.19885C66.0824 4.89197 64.6093 4.12895 62.8172 4.12895C61.4239 4.12895 60.1928 4.56457 59.2037 5.43583V4.39952Z" fill="#1D1D1D"/>
<path d="M7.69234 18.9158C3.12692 18.9158 0.27919 16.4265 0 12.5248H3.88472C3.98576 14.5514 5.27269 15.861 7.61789 15.861C9.55892 15.861 10.9469 14.9898 10.9469 13.4989C10.9469 12.3436 10.0641 11.6509 8.52725 11.3424L5.55188 10.7526C2.80253 10.2141 0.686009 8.69891 0.686009 5.64682C0.686009 2.36205 3.5364 0.00263343 7.44506 0.00263343C11.3537 0.00263343 14.4806 2.41346 14.7332 6.26374H10.8485C10.7235 4.33995 9.41002 3.03037 7.49558 3.03037C5.58113 3.03037 4.57073 4.10725 4.57073 5.39249C4.57073 6.67772 5.7061 7.1891 7.01697 7.44615L10.12 8.08741C13.2974 8.72867 15.0124 10.2168 15.0124 12.9361C15.0124 16.4509 12.2391 18.9158 7.70031 18.9158H7.69234Z" fill="#1D1D1D"/>
<path d="M39.5887 20.5421V23.8404C39.9823 23.9459 40.6098 24 41.2373 24C44.3243 24 46.0234 22.6958 47.4619 19.2379L53.737 4.33462H49.6582L45.8931 13.5964L42.5987 4.33462H38.4135L43.7473 18.3856L43.5905 18.786C43.0932 20.0361 42.152 20.6476 40.8704 20.6476C40.32 20.6476 39.9823 20.6232 39.5887 20.5421Z" fill="#1D1D1D"/>
</svg>
