<svg width="64" height="64" viewBox="0 0 64 64" fill="none" xmlns="http://www.w3.org/2000/svg">
<g filter="url(#filter0_d_99_372)">
<path d="M48 32C48 38.5593 44.053 44.1966 38.4046 46.6667C36.4435 47.5242 34.2773 48 32 48C29.7227 48 27.5565 47.5242 25.5954 46.6667C19.947 44.1966 16 38.5593 16 32C16 23.1634 23.1634 16 32 16C40.8366 16 48 23.1634 48 32Z" fill="white"/>
</g>
<path d="M31.9987 37.9987C31.2988 37.9987 30.7121 37.5669 30.5044 36.8972L30.2753 36.1595L29.5917 36.5195C28.9723 36.8456 28.2509 36.7373 27.7562 36.2413C27.2614 35.7465 27.1519 35.0252 27.478 34.4058L27.838 33.7222L27.1003 33.4931C26.4318 33.2866 26 32.7012 26 32C26 31.3 26.4318 30.7134 27.1016 30.5057L27.8393 30.2765L27.4792 29.593C27.1532 28.9736 27.2614 28.2522 27.7574 27.7574C28.2535 27.2627 28.9736 27.1532 29.593 27.4792L30.2765 27.8393L30.5057 27.1016C30.7134 26.4318 31.3 26 32 26C32.7 26 33.2866 26.4318 33.4943 27.1016L33.7235 27.8393L34.407 27.4792C35.0264 27.1532 35.7465 27.2614 36.2426 27.7574C36.7373 28.2522 36.8468 28.9736 36.5208 29.593L36.1607 30.2765L36.8984 30.5057C37.5682 30.7134 38 31.3 38 32C38 32.7 37.5682 33.2866 36.8984 33.4943L36.1607 33.7235L36.5208 34.407C36.8468 35.0264 36.7386 35.7465 36.2426 36.2426C35.7478 36.7373 35.0277 36.8468 34.407 36.5208L33.7235 36.1607L33.4943 36.8984C33.2866 37.5669 32.7012 38 32 38L31.9987 37.9987Z" fill="#FF1251"/>
<defs>
<filter id="filter0_d_99_372" x="0" y="0" width="64" height="64" filterUnits="userSpaceOnUse" color-interpolation-filters="sRGB">
<feFlood flood-opacity="0" result="BackgroundImageFix"/>
<feColorMatrix in="SourceAlpha" type="matrix" values="0 0 0 0 0 0 0 0 0 0 0 0 0 0 0 0 0 0 127 0" result="hardAlpha"/>
<feOffset/>
<feGaussianBlur stdDeviation="8"/>
<feComposite in2="hardAlpha" operator="out"/>
<feColorMatrix type="matrix" values="0 0 0 0 0 0 0 0 0 0 0 0 0 0 0 0 0 0 0.25 0"/>
<feBlend mode="normal" in2="BackgroundImageFix" result="effect1_dropShadow_99_372"/>
<feBlend mode="normal" in="SourceGraphic" in2="effect1_dropShadow_99_372" result="shape"/>
</filter>
</defs>
</svg>
