<svg width="77" height="85" viewBox="0 0 77 85" fill="none" xmlns="http://www.w3.org/2000/svg">
<g filter="url(#filter0_d_99_388)">
<path d="M64 39C64 48.8389 58.0795 57.295 49.6068 61C46.6652 62.2863 43.416 69 40 69C36.584 69 33.3348 62.2863 30.3932 61C21.9205 57.295 16 48.8389 16 39C16 25.7452 26.7452 15 40 15C53.2548 15 64 25.7452 64 39Z" fill="#FF1251"/>
<path d="M40 16.5C52.4264 16.5 62.5 26.5736 62.5 39C62.5 47.9333 57.2937 55.6541 49.7441 59.2871L49.0059 59.626C47.9776 60.0757 47.0489 60.9281 46.2588 61.7578C45.4586 62.598 44.611 63.626 43.8516 64.4951C43.0539 65.4081 42.3147 66.1939 41.6045 66.749C40.8805 67.3149 40.3633 67.5 40 67.5C39.6367 67.5 39.1195 67.3149 38.3955 66.749C37.6853 66.1939 36.9461 65.4081 36.1484 64.4951C35.389 63.626 34.5414 62.598 33.7412 61.7578C33.0004 60.9799 32.1378 60.1821 31.1855 59.7148L30.9941 59.626C23.0479 56.1511 17.5 48.2216 17.5 39C17.5 26.5736 27.5736 16.5 40 16.5Z" stroke="white" stroke-width="3"/>
</g>
<path d="M39.9981 47.9981C38.9482 47.9981 38.0682 47.3504 37.7566 46.3458L37.4129 45.2392L36.3875 45.7793C35.4585 46.2684 34.3764 46.106 33.6343 45.3619C32.8922 44.6198 32.7279 43.5378 33.217 42.6087L33.757 41.5833L32.6504 41.2396C31.6477 40.9299 31 40.0518 31 39C31 37.9501 31.6477 37.0701 32.6523 36.7585L33.7589 36.4148L33.2188 35.3894C32.7298 34.4603 32.8922 33.3783 33.6362 32.6362C34.3802 31.894 35.4603 31.7298 36.3894 32.2188L37.4148 32.7589L37.7585 31.6523C38.0701 30.6477 38.9501 30 40 30C41.0499 30 41.9299 30.6477 42.2415 31.6523L42.5852 32.7589L43.6106 32.2188C44.5397 31.7298 45.6198 31.8922 46.3638 32.6362C47.106 33.3783 47.2702 34.4603 46.7812 35.3894L46.2411 36.4148L47.3477 36.7585C48.3523 37.0701 49 37.9501 49 39C49 40.0499 48.3523 40.9299 47.3477 41.2415L46.2411 41.5852L46.7812 42.6106C47.2702 43.5397 47.1078 44.6198 46.3638 45.3638C45.6217 46.106 44.5415 46.2702 43.6106 45.7812L42.5852 45.2411L42.2415 46.3477C41.9299 47.3504 41.0518 48 40 48L39.9981 47.9981Z" fill="white"/>
<defs>
<filter id="filter0_d_99_388" x="0" y="-1" width="80" height="86" filterUnits="userSpaceOnUse" color-interpolation-filters="sRGB">
<feFlood flood-opacity="0" result="BackgroundImageFix"/>
<feColorMatrix in="SourceAlpha" type="matrix" values="0 0 0 0 0 0 0 0 0 0 0 0 0 0 0 0 0 0 127 0" result="hardAlpha"/>
<feOffset/>
<feGaussianBlur stdDeviation="8"/>
<feComposite in2="hardAlpha" operator="out"/>
<feColorMatrix type="matrix" values="0 0 0 0 0 0 0 0 0 0 0 0 0 0 0 0 0 0 0.25 0"/>
<feBlend mode="normal" in2="BackgroundImageFix" result="effect1_dropShadow_99_388"/>
<feBlend mode="normal" in="SourceGraphic" in2="effect1_dropShadow_99_388" result="shape"/>
</filter>
</defs>
</svg>
